<svg width="256" height="256" viewBox="0 0 256 256" fill="none" xmlns="http://www.w3.org/2000/svg">
  <rect width="256" height="256" rx="64" fill="#2563EB"/>
  <path d="M168 88C168 74.7452 157.255 64 144 64H112C98.7452 64 88 74.7452 88 88C88 101.255 98.7452 112 112 112H144C157.255 112 168 122.745 168 136C168 149.255 157.255 160 144 160H112C98.7452 160 88 149.255 88 136H64C64 162.507 85.4934 184 112 184H144C170.507 184 192 162.507 192 136C192 109.493 170.507 88 144 88H112C98.7452 88 88 77.2548 88 64C88 50.7452 98.7452 40 112 40H144C157.255 40 168 50.7452 168 64H168Z" fill="white"/>
  <path d="M88 136H64C64 162.507 85.4934 184 112 184H144C170.507 184 192 162.507 192 136C192 109.493 170.507 88 144 88H112C98.7452 88 88 77.2548 88 64C88 50.7452 98.7452 40 112 40H144C157.255 40 168 50.7452 168 64H192C192 37.4934 170.507 16 144 16H112C85.4934 16 64 37.4934 64 64C64 90.5066 85.4934 112 112 112H144C157.255 112 168 122.745 168 136C168 149.255 157.255 160 144 160H112C98.7452 160 88 149.255 88 136Z" fill="white" fill-opacity="0.2"/>
  <text x="50%" y="50%" dominant-baseline="central" text-anchor="middle" font-family="Arial, sans-serif" font-weight="bold" font-size="140" fill="white">SS</text>
</svg>
